<svg width="50" height="50" viewBox="0 0 50 50" fill="none" xmlns="http://www.w3.org/2000/svg">
<rect width="50" height="50" fill="#121212"/>
<path d="M17.8864 31H16.4091L20.6818 19.3636H22.1364L26.4091 31H24.9318L21.4545 21.2045H21.3636L17.8864 31ZM18.4318 26.4545H24.3864V27.7045H18.4318V26.4545ZM29.3807 19.3636V31H28.0398V19.3636H29.3807ZM33.1776 19.3636V31H31.8366V19.3636H33.1776Z" fill="white"/>
<path d="M17.8864 31V31.5H18.2394L18.3576 31.1673L17.8864 31ZM16.4091 31L15.9397 30.8277L15.6929 31.5H16.4091V31ZM20.6818 19.3636V18.8636H20.3328L20.2125 19.1913L20.6818 19.3636ZM22.1364 19.3636L22.6057 19.1913L22.4854 18.8636H22.1364V19.3636ZM26.4091 31V31.5H27.1253L26.8785 30.8277L26.4091 31ZM24.9318 31L24.4606 31.1673L24.5787 31.5H24.9318V31ZM21.4545 21.2045L21.9257 21.0373L21.8076 20.7045H21.4545V21.2045ZM21.3636 21.2045V20.7045H21.0106L20.8924 21.0373L21.3636 21.2045ZM18.4318 26.4545V25.9545H17.9318V26.4545H18.4318ZM24.3864 26.4545H24.8864V25.9545H24.3864V26.4545ZM24.3864 27.7045V28.2045H24.8864V27.7045H24.3864ZM18.4318 27.7045H17.9318V28.2045H18.4318V27.7045ZM17.8864 30.5H16.4091V31.5H17.8864V30.5ZM16.8785 31.1723L21.1512 19.536L20.2125 19.1913L15.9397 30.8277L16.8785 31.1723ZM20.6818 19.8636H22.1364V18.8636H20.6818V19.8636ZM21.667 19.536L25.9397 31.1723L26.8785 30.8277L22.6057 19.1913L21.667 19.536ZM26.4091 30.5H24.9318V31.5H26.4091V30.5ZM25.403 30.8327L21.9257 21.0373L20.9834 21.3718L24.4606 31.1673L25.403 30.8327ZM21.4545 20.7045H21.3636V21.7045H21.4545V20.7045ZM20.8924 21.0373L17.4152 30.8327L18.3576 31.1673L21.8348 21.3718L20.8924 21.0373ZM18.4318 26.9545H24.3864V25.9545H18.4318V26.9545ZM23.8864 26.4545V27.7045H24.8864V26.4545H23.8864ZM24.3864 27.2045H18.4318V28.2045H24.3864V27.2045ZM18.9318 27.7045V26.4545H17.9318V27.7045H18.9318ZM29.3807 19.3636H29.8807V18.8636H29.3807V19.3636ZM29.3807 31V31.5H29.8807V31H29.3807ZM28.0398 31H27.5398V31.5H28.0398V31ZM28.0398 19.3636V18.8636H27.5398V19.3636H28.0398ZM28.8807 19.3636V31H29.8807V19.3636H28.8807ZM29.3807 30.5H28.0398V31.5H29.3807V30.5ZM28.5398 31V19.3636H27.5398V31H28.5398ZM28.0398 19.8636H29.3807V18.8636H28.0398V19.8636ZM33.1776 19.3636H33.6776V18.8636H33.1776V19.3636ZM33.1776 31V31.5H33.6776V31H33.1776ZM31.8366 31H31.3366V31.5H31.8366V31ZM31.8366 19.3636V18.8636H31.3366V19.3636H31.8366ZM32.6776 19.3636V31H33.6776V19.3636H32.6776ZM33.1776 30.5H31.8366V31.5H33.1776V30.5ZM32.3366 31V19.3636H31.3366V31H32.3366ZM31.8366 19.8636H33.1776V18.8636H31.8366V19.8636Z" fill="white"/>
</svg>
