<svg width="44" height="44" viewBox="0 0 44 44" fill="none" xmlns="http://www.w3.org/2000/svg">
<path d="M4.5752 8.56958C6.97888 5.451 10.1755 3.03467 13.8314 1.57271C17.4873 0.110752 21.4686 -0.343251 25.3599 0.258075L24.7233 4.37754C21.5693 3.89015 18.3424 4.25813 15.3791 5.44309C12.4159 6.62805 9.82495 8.58656 7.87669 11.1143L4.5752 8.56958Z" fill="#FFC700"/>
<path d="M14.7579 42.7738C10.1159 41.1555 6.14963 38.0291 3.49199 33.8934C0.834353 29.7577 -0.36154 24.8511 0.0951285 19.9563L4.24547 20.3435C3.87532 24.3109 4.84463 28.2879 6.99872 31.64C9.15282 34.9921 12.3676 37.5261 16.1301 38.8378L14.7579 42.7738Z" fill="#FFC700"/>
<path d="M43.7232 18.5209C44.426 22.9092 43.7833 27.4075 41.8796 31.4234C39.976 35.4393 36.9007 38.7845 33.0588 41.0185L30.9635 37.415C34.0775 35.6043 36.5701 32.8929 38.113 29.6379C39.656 26.3829 40.1769 22.7369 39.6073 19.1801L43.7232 18.5209Z" fill="#FFC700"/>
</svg>
