<svg width="50" height="50" viewBox="0 0 50 50" fill="none" xmlns="http://www.w3.org/2000/svg">
<rect width="50" height="50" fill="#005066"/>
<path fill-rule="evenodd" clip-rule="evenodd" d="M16.9179 12.0633C17.145 11.8677 17.3744 11.6928 17.6009 11.5407L18.3362 9L18.8165 9.13901L18.2276 11.1738C18.999 10.7908 19.6715 10.7218 20.0104 11.0606C20.4913 11.5416 20.1506 12.6947 19.2567 13.8485C19.5747 13.8203 19.8365 13.8867 20.0104 14.0606C20.4913 14.5416 20.1506 15.6947 19.2567 16.8485C19.5747 16.8203 19.8365 16.8867 20.0104 17.0606C20.4913 17.5416 20.1506 18.6947 19.2567 19.8485C19.5747 19.8203 19.8365 19.8867 20.0104 20.0606C20.5962 20.6464 19.963 22.2293 18.5962 23.5962C17.6424 24.5499 16.5834 25.1465 15.8314 25.2209L14.9964 35.0416L14 34.9569L14.8745 24.6716C14.8641 24.6305 14.8562 24.5876 14.8508 24.5429C14.2228 24.3847 13.4821 23.8865 12.8592 23.1441C11.8324 21.9204 11.5144 20.4967 12.1491 19.9642C12.4496 19.712 12.9098 19.7049 13.4201 19.8973C12.7471 18.4491 12.6724 17.1118 13.299 16.75C13.4743 16.6488 13.6882 16.6333 13.9255 16.692C13.2351 15.2284 13.1531 13.8696 13.7856 13.5044C13.8001 13.4961 13.8148 13.4883 13.8299 13.4811C13.2288 12.0996 13.1836 10.852 13.7856 10.5044C14.1228 10.3097 14.6031 10.4322 15.1178 10.7905L15 9L15.4989 8.96716L15.648 11.2321C15.9071 11.4829 16.1657 11.7843 16.4107 12.1266L17.0167 5L17.5149 5.04236L16.9179 12.0633ZM15.7548 36.6505C14.5335 30.0304 17.5523 23.0745 23.8392 19.4573C28.3487 16.8627 33.5857 16.5348 38.1601 18.1237C39.4264 24.076 37.2311 30.3656 32.2858 34.3018C33.7545 34.6818 35.0922 35.3187 36.2147 36.1604C35.2505 39.9772 31.4983 43.1408 26.6411 43.8047C23.4375 44.2425 20.3897 43.506 18.1114 41.9749L14.7179 42.6097L14.525 41.6285L17.8792 41.0011C18.259 39.8991 18.8732 38.8635 19.6783 37.9417C18.6059 37.8254 17.5477 37.61 16.5187 37.2994L14.1252 39.7424L13.3938 39.0604L15.7548 36.6505Z" fill="white"/>
<path fill-rule="evenodd" clip-rule="evenodd" d="M20.95 33.3636C22.5852 30.5226 25.3874 27.153 28.9629 23.9355C30.7819 22.2987 32.6249 20.8597 34.3963 19.6616C32.0804 20.4354 29.4233 22.0199 26.9487 24.2467C23.5805 27.2776 21.4009 30.7332 20.95 33.3636Z" fill="#005066"/>
<path fill-rule="evenodd" clip-rule="evenodd" d="M32.8201 36.1751C30.9808 37.6166 28.2561 38.8617 25.0882 39.5661C23.4766 39.9245 21.9063 40.1082 20.4497 40.1336C22.128 40.7482 24.2522 40.8839 26.4447 40.3964C29.4289 39.7328 31.7862 38.0822 32.8201 36.1751Z" fill="#005066"/>
</svg>
