<svg width="50" height="50" viewBox="0 0 50 50" fill="none" xmlns="http://www.w3.org/2000/svg">
<rect width="50" height="50" fill="#121212"/>
<path fill-rule="evenodd" clip-rule="evenodd" d="M15.84 37.0792C14.4046 30.3326 17.4164 23.1527 23.8392 19.4573C28.3487 16.8627 33.5857 16.5348 38.1601 18.1237C39.5954 24.8702 36.5836 32.0502 30.1609 35.7455C25.6514 38.3401 20.4143 38.668 15.84 37.0792Z" fill="#D9D9D9"/>
<path fill-rule="evenodd" clip-rule="evenodd" d="M17.68 41.6686C18.6442 37.8518 22.3964 34.6882 27.2536 34.0244C30.664 33.5582 33.8977 34.423 36.2147 36.1604C35.2505 39.9772 31.4983 43.1408 26.6411 43.8047C23.2307 44.2708 19.997 43.406 17.68 41.6686Z" fill="#D9D9D9"/>
<path fill-rule="evenodd" clip-rule="evenodd" d="M20.95 33.3636C22.5852 30.5226 25.3874 27.153 28.9629 23.9355C30.7819 22.2987 32.6249 20.8597 34.3963 19.6616C32.0804 20.4354 29.4233 22.0199 26.9487 24.2467C23.5805 27.2776 21.4009 30.7332 20.95 33.3636Z" fill="#121212"/>
<path fill-rule="evenodd" clip-rule="evenodd" d="M32.8201 36.1751C30.9808 37.6166 28.2561 38.8617 25.0882 39.5661C23.4766 39.9245 21.9063 40.1082 20.4497 40.1336C22.128 40.7482 24.2522 40.8839 26.4447 40.3964C29.4289 39.7328 31.7862 38.0822 32.8201 36.1751Z" fill="#121212"/>
<line y1="-0.5" x2="5.58439" y2="-0.5" transform="matrix(-0.699831 0.714309 -0.73141 -0.681938 17.3019 35.0715)" stroke="#D9D9D9"/>
<line y1="-0.5" x2="5.65146" y2="-0.5" transform="matrix(-0.982951 0.183869 -0.192871 -0.981224 20.0801 40.5894)" stroke="#D9D9D9"/>
<path fill-rule="evenodd" clip-rule="evenodd" d="M13.8299 13.4811C13.8148 13.4883 13.8001 13.4961 13.7856 13.5044C13.1531 13.8696 13.2351 15.2284 13.9255 16.692C13.6882 16.6333 13.4743 16.6488 13.299 16.75C12.6724 17.1118 12.7471 18.4491 13.4201 19.8973C12.9098 19.7049 12.4496 19.712 12.1491 19.9642C11.5144 20.4967 11.8324 21.9204 12.8592 23.1441C13.4821 23.8865 14.2228 24.3847 14.8508 24.5429C14.8736 24.7328 14.9422 24.892 15.0606 25.0104C15.6464 25.5962 17.2293 24.963 18.5962 23.5962C19.963 22.2293 20.5962 20.6464 20.0104 20.0606C19.8365 19.8867 19.5747 19.8203 19.2567 19.8485C20.1506 18.6947 20.4913 17.5416 20.0104 17.0606C19.8365 16.8867 19.5747 16.8203 19.2567 16.8485C20.1506 15.6947 20.4913 14.5416 20.0104 14.0606C19.8365 13.8867 19.5747 13.8203 19.2567 13.8485C20.1506 12.6947 20.4913 11.5416 20.0104 11.0606C19.4395 10.4897 17.9214 11.0766 16.5794 12.3721C15.6401 10.9478 14.4418 10.1255 13.7856 10.5044C13.1836 10.852 13.2288 12.0996 13.8299 13.4811Z" fill="#D9D9D9"/>
<line x1="15.5149" y1="23.0424" x2="14.4982" y2="34.9992" stroke="#D9D9D9"/>
<line x1="17.2658" y1="5.02118" x2="16.2491" y2="16.978" stroke="#D9D9D9" stroke-width="0.5"/>
<line x1="18.5764" y1="9.06951" x2="15.2401" y2="20.5964" stroke="#D9D9D9" stroke-width="0.5"/>
<line x1="15.2495" y1="8.98358" x2="16.0376" y2="20.9577" stroke="#D9D9D9" stroke-width="0.5"/>
</svg>
