<svg width="50" height="50" viewBox="0 0 50 50" fill="none" xmlns="http://www.w3.org/2000/svg">
<rect width="50" height="50" fill="#005066"/>
<path fill-rule="evenodd" clip-rule="evenodd" d="M31 3.66666C30.2636 3.66666 29.6667 4.26361 29.6667 4.99999C29.6667 5.65092 30.1331 6.19291 30.75 6.30992V16H28.25V10.3099C28.8669 10.1929 29.3334 9.65092 29.3334 8.99999C29.3334 8.26361 28.7364 7.66666 28 7.66666C27.2636 7.66666 26.6667 8.26361 26.6667 8.99999C26.6667 9.65092 27.1331 10.1929 27.75 10.3099V16H24.25V12.1934L25.4434 11L24 9.55661L22.5566 11L23.75 12.1934V16H21.25V8.30992C21.8669 8.19291 22.3334 7.65092 22.3334 6.99999C22.3334 6.26361 21.7364 5.66666 21 5.66666C20.2636 5.66666 19.6667 6.26361 19.6667 6.99999C19.6667 7.65092 20.1331 8.19291 20.75 8.30992V16H17.5V14.3099C18.1169 14.1929 18.5834 13.6509 18.5834 13C18.5834 12.2636 17.9864 11.6667 17.25 11.6667C16.5136 11.6667 15.9167 12.2636 15.9167 13C15.9167 13.6509 16.3831 14.1929 17 14.3099V16H15V18.0833H4.64327C4.52625 17.4664 3.98426 17 3.33333 17C2.59695 17 2 17.5969 2 18.3333C2 19.0697 2.59695 19.6667 3.33333 19.6667C3.98426 19.6667 4.52625 19.2002 4.64327 18.5833H15V21.0833H9.83333L7.33333 19.8899V22.7767L9.83333 21.5833H15V25.0833H10.6433C10.5262 24.4664 9.98426 24 9.33333 24C8.59695 24 8 24.5969 8 25.3333C8 26.0697 8.59695 26.6667 9.33333 26.6667C9.98426 26.6667 10.5262 26.2002 10.6433 25.5833H15V28.0833H6.64327C6.52625 27.4664 5.98426 27 5.33333 27C4.59695 27 4 27.5969 4 28.3333C4 29.0697 4.59695 29.6667 5.33333 29.6667C5.98426 29.6667 6.52625 29.2002 6.64327 28.5833H15V31.8333H12.6433C12.5262 31.2164 11.9843 30.75 11.3333 30.75C10.597 30.75 10 31.3469 10 32.0833C10 32.8197 10.597 33.4167 11.3333 33.4167C11.9843 33.4167 12.5262 32.9502 12.6433 32.3333H15V35H17.0834V43.8066L15.89 45L17.3334 46.4434L18.7767 45L17.5834 43.8066V35H20.0834V39.6901C19.4665 39.8071 19 40.3491 19 41C19 41.7364 19.597 42.3333 20.3334 42.3333C21.0697 42.3333 21.6667 41.7364 21.6667 41C21.6667 40.3491 21.2002 39.8071 20.5834 39.6901V35H24.0834V37.6901C23.4665 37.8071 23 38.3491 23 39C23 39.7364 23.597 40.3333 24.3334 40.3333C25.0697 40.3333 25.6667 39.7364 25.6667 39C25.6667 38.3491 25.2002 37.8071 24.5834 37.6901V35H27.0834V41.6901C26.4665 41.8071 26 42.3491 26 43C26 43.7364 26.597 44.3333 27.3334 44.3333C28.0697 44.3333 28.6667 43.7364 28.6667 43C28.6667 42.3491 28.2002 41.8071 27.5834 41.6901V35H30.8334V35.6901C30.2165 35.8071 29.75 36.3491 29.75 37C29.75 37.7364 30.347 38.3333 31.0834 38.3333C31.8197 38.3333 32.4167 37.7364 32.4167 37C32.4167 36.3491 31.9502 35.8071 31.3334 35.6901V35H34V33.3333H43.69C43.8071 33.9502 44.349 34.4167 45 34.4167C45.7364 34.4167 46.3333 33.8197 46.3333 33.0833C46.3333 32.347 45.7364 31.75 45 31.75C44.349 31.75 43.8071 32.2165 43.69 32.8333H34V30.3333H39.69C39.8071 30.9502 40.349 31.4167 41 31.4167C41.7364 31.4167 42.3333 30.8197 42.3333 30.0833C42.3333 29.347 41.7364 28.75 41 28.75C40.349 28.75 39.8071 29.2165 39.69 29.8333H34V26.3333H36.5V27.5267L39 26.0833L36.5 24.64V25.8333H34V23.3333H41.69C41.8071 23.9502 42.349 24.4167 43 24.4167C43.7364 24.4167 44.3333 23.8197 44.3333 23.0833C44.3333 22.347 43.7364 21.75 43 21.75C42.349 21.75 41.8071 22.2165 41.69 22.8333H34V19.5833H35.69C35.8071 20.2002 36.349 20.6667 37 20.6667C37.7364 20.6667 38.3333 20.0697 38.3333 19.3333C38.3333 18.597 37.7364 18 37 18C36.349 18 35.8071 18.4665 35.69 19.0833H34V16H31.25V6.30992C31.8669 6.19291 32.3334 5.65092 32.3334 4.99999C32.3334 4.26361 31.7364 3.66666 31 3.66666Z" fill="white"/>
</svg>
