<svg width="50" height="50" viewBox="0 0 50 50" fill="none" xmlns="http://www.w3.org/2000/svg">
<rect width="50" height="50" fill="#121212"/>
<path fill-rule="evenodd" clip-rule="evenodd" d="M26 8C27.1046 8 28 7.10457 28 6C28 4.89543 27.1046 4 26 4C24.8954 4 24 4.89543 24 6C24 7.10457 24.8954 8 26 8ZM29 11.5C29 12.3284 28.3284 13 27.5 13C26.6716 13 26 12.3284 26 11.5C26 10.6716 26.6716 10 27.5 10C28.3284 10 29 10.6716 29 11.5ZM22 15C22 14.4477 22.4477 14 23 14H27C27.5523 14 28 14.4477 28 15V19.4951L37.5453 40.1614C38.1575 41.4866 37.1895 43 35.7297 43H14.2704C12.8106 43 11.8426 41.4866 12.4547 40.1614L22 19.4953V15ZM28.5 36C29.3284 36 30 35.3284 30 34.5C30 33.6716 29.3284 33 28.5 33C27.6716 33 27 33.6716 27 34.5C27 35.3284 27.6716 36 28.5 36ZM23 35C23 36.1046 22.1046 37 21 37C19.8954 37 19 36.1046 19 35C19 33.8954 19.8954 33 21 33C22.1046 33 23 33.8954 23 35ZM25.5 41C26.8807 41 28 39.8807 28 38.5C28 37.1193 26.8807 36 25.5 36C24.1193 36 23 37.1193 23 38.5C23 39.8807 24.1193 41 25.5 41ZM24.5 30C25.3284 30 26 29.3284 26 28.5C26 27.6716 25.3284 27 24.5 27C23.6716 27 23 27.6716 23 28.5C23 29.3284 23.6716 30 24.5 30Z" fill="#D9D9D9"/>
</svg>
