<svg width="34" height="15" viewBox="0 0 34 15" fill="none" xmlns="http://www.w3.org/2000/svg">
<path d="M11.5858 0.585786C11.2107 0.210713 10.702 0 10.1716 0H2C0.895431 0 0 0.89543 0 2V11C0 12.1046 0.89543 13 2 13H21.1716C21.702 13 22.2107 13.2107 22.5858 13.5858L23.4142 14.4142C23.7893 14.7893 24.298 15 24.8284 15H32C33.1046 15 34 14.1046 34 13V4C34 2.89543 33.1046 2 32 2H13.8284C13.298 2 12.7893 1.78929 12.4142 1.41421L11.5858 0.585786Z" fill="#005066"/>
<path d="M17.5 10L15.3349 5.5H19.6651L17.5 10Z" fill="#FEBE28"/>
</svg>
