<svg width="40" height="22" viewBox="0 0 40 22" fill="none" xmlns="http://www.w3.org/2000/svg">
<g filter="url(#filter0_f_79_10)">
<path d="M14.2442 2.67676C13.8645 2.24648 13.3184 2 12.7445 2H4C2.89543 2 2 2.89543 2 4V15.6C2 16.7046 2.89543 17.6 4 17.6H24.3916C24.9654 17.6 25.5116 17.8465 25.8913 18.2768L26.8146 19.3232C27.1943 19.7535 27.7405 20 28.3143 20H36C37.1046 20 38 19.1046 38 18V6.4C38 5.29543 37.1046 4.4 36 4.4H16.6672C16.0934 4.4 15.5472 4.15352 15.1676 3.72324L14.2442 2.67676Z" fill="#64A1B3" fill-opacity="0.9"/>
</g>
<path d="M14.5997 0.719631C14.2197 0.263646 13.6568 0 13.0632 0L5 0C3.89543 0 3 0.89543 3 2V13.6C3 14.7046 3.89543 15.6 5 15.6H24.0633C24.6568 15.6 25.2197 15.8636 25.5997 16.3196L26.4003 17.2804C26.7803 17.7364 27.3432 18 27.9368 18H35C36.1046 18 37 17.1046 37 16V4.4C37 3.29543 36.1046 2.4 35 2.4H16.9368C16.3432 2.4 15.7803 2.13635 15.4003 1.68037L14.5997 0.719631Z" fill="#005066"/>
<path d="M21 4L26.1962 13H15.8038L21 4Z" fill="#F3DC88" fill-opacity="0.8"/>
<path d="M20 4L25.1962 12.25H14.8038L20 4Z" fill="#FFC700"/>
<defs>
<filter id="filter0_f_79_10" x="0" y="0" width="40" height="22" filterUnits="userSpaceOnUse" color-interpolation-filters="sRGB">
<feFlood flood-opacity="0" result="BackgroundImageFix"/>
<feBlend mode="normal" in="SourceGraphic" in2="BackgroundImageFix" result="shape"/>
<feGaussianBlur stdDeviation="1" result="effect1_foregroundBlur_79_10"/>
</filter>
</defs>
</svg>
