<svg width="50" height="50" viewBox="0 0 50 50" fill="none" xmlns="http://www.w3.org/2000/svg">
<rect width="50" height="50" fill="#005066"/>
<path fill-rule="evenodd" clip-rule="evenodd" d="M40.1576 7.87634L41.7283 6.14546L41.7565 6.17652C41.8368 6.04735 41.9293 5.92404 42.0339 5.80871C42.8774 4.87922 44.1915 4.82021 44.9689 5.6769C45.7464 6.5336 45.6928 7.98158 44.8493 8.91107C44.7447 9.0264 44.6328 9.12833 44.5155 9.21677L44.5437 9.24782L42.9729 10.9787L42.0017 9.90846L40.5111 11.5511L44.7839 16.2595L44.1119 17L39.839 12.2916L35.5596 17.0072L34.8876 16.2667L39.167 11.5511L36.2085 8.29096C35.2174 9.35738 34.4475 10.498 33.9301 11.6049C33.8815 10.1657 34.5612 8.50983 35.8846 7.18649C37.2079 5.86314 38.8638 5.18344 40.303 5.23206C39.1689 5.76206 37.9995 6.55718 36.9107 7.58373L39.839 10.8105L41.3297 9.16794L40.1576 7.87634ZM30.4497 18.5L30.9497 18L34.9498 22H39L34.1998 34.7082H32.7084C32.8953 35.0994 33 35.5375 33 36C33 37.6569 31.6569 39 30 39C28.3431 39 27 37.6569 27 36C27 35.5375 27.1047 35.0994 27.2916 34.7082H24.7084C24.8953 35.0994 25 35.5375 25 36C25 37.6569 23.6569 39 22 39C20.3431 39 19 37.6569 19 36C19 35.5375 19.1047 35.0994 19.2916 34.7082H17.8002L13 22H15.9497L19.9497 18L21.9497 20L24.9497 17L25.9497 18L27.9497 16L30.4497 18.5ZM24 36C24 37.1046 23.1046 38 22 38C20.8954 38 20 37.1046 20 36C20 34.8954 20.8954 34 22 34C23.1046 34 24 34.8954 24 36ZM30 38C31.1046 38 32 37.1046 32 36C32 34.8954 31.1046 34 30 34C28.8954 34 28 34.8954 28 36C28 37.1046 28.8954 38 30 38Z" fill="white"/>
</svg>
