<svg width="50" height="50" viewBox="0 0 50 50" fill="none" xmlns="http://www.w3.org/2000/svg">
<rect width="50" height="50" fill="#005066"/>
<path fill-rule="evenodd" clip-rule="evenodd" d="M17.8504 11.8339C18.2238 11.6299 18.684 11.7093 18.9856 12.0095L20.942 13.9569C21.2139 14.2276 21.6157 14.315 21.9843 14.2084C22.1309 14.1659 22.2787 14.1264 22.4277 14.0898C22.8008 13.9982 23.1055 13.7215 23.2058 13.3507L23.9166 10.722C24.0285 10.3082 24.3917 10.0085 24.8203 10.0018C24.8994 10.0006 24.9787 10 25.0582 10C25.189 10 25.3195 10.0017 25.4495 10.005C25.8745 10.0158 26.2328 10.3144 26.3437 10.7248L27.0538 13.3507C27.154 13.7215 27.4588 13.9982 27.8318 14.0898C27.9808 14.1264 28.1287 14.1659 28.2753 14.2084C28.6438 14.315 29.0456 14.2276 29.3176 13.9569L31.2229 12.0603C31.5263 11.7583 31.99 11.68 32.3642 11.888C32.554 11.9935 32.7412 12.103 32.9259 12.2163C33.2875 12.4384 33.4477 12.8755 33.3388 13.2857L32.6489 15.8843C32.5505 16.2549 32.6755 16.6465 32.9521 16.9121C33.0621 17.0179 33.1701 17.1258 33.2758 17.2359C33.5415 17.5125 33.933 17.6374 34.3037 17.539L36.8781 16.8555C37.2905 16.746 37.7298 16.9086 37.9507 17.2736C38.0654 17.4633 38.1761 17.6556 38.2826 17.8506C38.4866 18.2241 38.4072 18.6842 38.107 18.9858L36.2311 20.8704C35.9604 21.1423 35.8729 21.5441 35.9796 21.9127C36.022 22.0593 36.0615 22.2071 36.0981 22.3561C36.1897 22.7292 36.4665 23.0339 36.8373 23.1342L39.3927 23.8252C39.8044 23.9365 40.1034 24.2966 40.1127 24.7229C40.1151 24.8344 40.1164 24.9461 40.1164 25.0582C40.1164 25.1702 40.1151 25.282 40.1127 25.3935C40.1034 25.8198 39.8044 26.1799 39.3927 26.2912L36.8373 26.9822C36.4665 27.0824 36.1897 27.3872 36.0981 27.7602C36.0615 27.9092 36.022 28.0571 35.9796 28.2037C35.8729 28.5722 35.9604 28.9741 36.2311 29.246L38.107 31.1306C38.4072 31.4321 38.4866 31.8923 38.2826 32.2657C38.1761 32.4607 38.0654 32.6531 37.9507 32.8427C37.7298 33.2078 37.2905 33.3703 36.8781 33.2608L34.3037 32.5773C33.933 32.4789 33.5415 32.6039 33.2758 32.8805C33.1701 32.9906 33.0621 33.0985 32.9521 33.2042C32.6755 33.4699 32.5505 33.8614 32.6489 34.2321L33.3388 36.8306C33.4477 37.2408 33.2875 37.678 32.9259 37.9C32.7412 38.0134 32.554 38.1228 32.3642 38.2283C31.99 38.4364 31.5263 38.3581 31.2229 38.0561L29.3176 36.1595C29.0456 35.8888 28.6438 35.8013 28.2753 35.908C28.1287 35.9504 27.9808 35.99 27.8318 36.0265C27.4588 36.1181 27.154 36.3949 27.0538 36.7657L26.3437 39.3915C26.2328 39.8019 25.8745 40.1005 25.4495 40.1114C25.3195 40.1147 25.189 40.1164 25.0582 40.1164C24.9787 40.1164 24.8994 40.1157 24.8203 40.1145C24.3917 40.1079 24.0285 39.8081 23.9166 39.3943L23.2058 36.7657C23.1055 36.3949 22.8008 36.1181 22.4277 36.0265C22.2787 35.99 22.1309 35.9504 21.9843 35.908C21.6157 35.8013 21.2139 35.8888 20.942 36.1595L18.9856 38.1069C18.684 38.4071 18.2238 38.4865 17.8504 38.2825C17.672 38.1851 17.4959 38.0841 17.322 37.9798C16.955 37.7596 16.791 37.319 16.9009 36.9054L17.6106 34.2321C17.709 33.8614 17.5841 33.4699 17.3075 33.2042C17.1974 33.0985 17.0895 32.9906 16.9837 32.8805C16.7181 32.6039 16.3265 32.4789 15.9559 32.5773L13.2581 33.2936C12.8466 33.4028 12.4082 33.2413 12.1869 32.8776C12.084 32.7087 11.9844 32.5376 11.8881 32.3645C11.6801 31.9903 11.7584 31.5265 12.0604 31.2231L14.0285 29.246C14.2992 28.974 14.3866 28.5722 14.28 28.2037C14.2375 28.0571 14.198 27.9092 14.1614 27.7602C14.0698 27.3872 13.7931 27.0824 13.4223 26.9822L10.7229 26.2522C10.3103 26.1407 10.011 25.7793 10.0028 25.352C10.0009 25.2543 10 25.1563 10 25.0582C10 24.96 10.0009 24.8621 10.0028 24.7644C10.011 24.3371 10.3103 23.9757 10.7229 23.8641L13.4223 23.1342C13.7931 23.0339 14.0698 22.7292 14.1614 22.3561C14.198 22.2071 14.2375 22.0593 14.28 21.9127C14.3866 21.5441 14.2992 21.1423 14.0285 20.8704L12.0604 18.8933C11.7584 18.5898 11.6801 18.1261 11.8881 17.7519C11.9844 17.5787 12.084 17.4076 12.1869 17.2387C12.4082 16.8751 12.8466 16.7135 13.2581 16.8228L15.9559 17.539C16.3265 17.6374 16.7181 17.5125 16.9837 17.2359C17.0895 17.1258 17.1974 17.0179 17.3075 16.9121C17.5841 16.6465 17.709 16.2549 17.6106 15.8843L16.9009 13.211C16.791 12.7973 16.955 12.3567 17.322 12.1366C17.4959 12.0322 17.672 11.9313 17.8504 11.8339ZM25.1298 32.5873C29.288 32.5873 32.6589 29.2164 32.6589 25.0582C32.6589 20.9 29.288 17.5291 25.1298 17.5291C20.9716 17.5291 17.6007 20.9 17.6007 25.0582C17.6007 29.2164 20.9716 32.5873 25.1298 32.5873Z" fill="white"/>
</svg>
